<svg width="23" height="23" viewBox="0 0 23 23" fill="none" xmlns="http://www.w3.org/2000/svg">
<g id="Vector">
<path id="Vector_2" d="M11.5 7.3L15.4945 10.2021M11.5 7.3L7.50559 10.2021M11.5 7.3V4.15M15.4945 10.2021L13.9688 14.8979M15.4945 10.2021L18.325 8.875M7.50559 10.2021L9.03133 14.8979M7.50559 10.2021L4.675 8.875M11.5 4.15L7.95556 1.61329M11.5 4.15L15.0445 1.61329M13.9688 14.8979H9.03133M13.9688 14.8979L15.7 17.275M18.325 8.875L21.9481 12.55M18.325 8.875L19.375 4.55471M9.03133 14.8979L7.3 17.275M15.7 17.275L20.5953 16.75M15.7 17.275L13.075 21.8827M7.3 17.275L2.40471 16.75M7.3 17.275L9.925 21.8827M4.675 8.875L1.05185 12.55M4.675 8.875L3.625 4.55471M22 11.5C22 17.2989 17.2989 22 11.5 22C5.70101 22 1 17.2989 1 11.5C1 5.70101 5.70101 1 11.5 1C17.2989 1 22 5.70101 22 11.5Z" stroke="#629F3F" stroke-width="1.5" stroke-linecap="round" stroke-linejoin="round"/>
</g>
</svg>
