<svg width="25" height="24" viewBox="0 0 25 24" fill="none" xmlns="http://www.w3.org/2000/svg">
<g id="mdi:clipboard-play-multiple-outline">
<path id="Vector" d="M4.33057 7V21H18.3306V23H4.33057C3.23057 23 2.33057 22.1 2.33057 21V7H4.33057ZM20.3306 3C21.4306 3 22.3306 3.9 22.3306 5V17C22.3306 18.1 21.4306 19 20.3306 19H8.33057C7.23057 19 6.33057 18.1 6.33057 17V5C6.33057 3.9 7.23057 3 8.33057 3H11.5306C11.9306 1.8 13.0306 1 14.3306 1C15.6306 1 16.7306 1.8 17.1306 3H20.3306ZM14.3306 3C13.7306 3 13.3306 3.5 13.3306 4C13.3306 4.5 13.7306 5 14.3306 5C14.9306 5 15.3306 4.6 15.3306 4C15.3306 3.4 14.9306 3 14.3306 3ZM10.3306 7V5H8.33057V17H20.3306V5H18.3306V7M12.3306 15V9L17.3306 12" fill="#505050"/>
</g>
</svg>
