<svg width="28" height="24" viewBox="0 0 28 24" fill="none" xmlns="http://www.w3.org/2000/svg">
<g id="Group">
<path id="Vector" d="M25.8407 5.87227C26.3463 6.11386 26.731 6.48965 26.8473 7.0444C26.9189 7.37546 26.8786 7.73336 26.8831 8.07337C26.8831 8.07337 26.8831 8.07337 26.8921 8.07337C26.91 8.051 26.9368 8.0331 26.9547 8.00626C27.1784 7.76468 27.3573 7.50073 27.5094 7.22335C27.6347 6.99072 27.7331 6.74913 27.8092 6.49413C27.9031 6.18544 27.9613 5.86333 27.9881 5.52332C28.0821 4.28408 27.6168 3.29538 26.6281 2.55721C26.5699 2.51247 26.5118 2.47221 26.4492 2.43642C26.4223 2.41852 26.3955 2.39615 26.3686 2.37826C25.1697 1.51482 23.7336 1.36718 22.2572 1.38955C22.1499 1.38955 22.0112 1.51929 21.9262 1.61772C21.1746 2.49905 20.2575 2.75853 19.139 2.46326C18.5708 2.30668 17.9848 2.20825 17.3137 2.06509C17.5777 1.95772 17.8058 1.81009 18.0474 1.7743C18.7811 1.69377 19.5193 1.64008 20.2575 1.5864C20.7854 1.55061 21.3088 1.53271 21.7562 1.06297C21.5548 0.98244 21.4027 0.91086 21.2417 0.848227C17.4837 -0.498379 13.8107 -0.212057 10.2541 1.49692C5.90111 3.57723 2.83211 6.91466 0.935226 11.3482C0.872593 11.4869 0.818908 11.5898 0.77417 11.7911C2.02683 10.4668 3.35554 9.3126 5.26584 8.78917C1.56603 13.7014 1.47208 19.2489 4.4874 23.7316C4.33082 21.7363 4.21897 18.9312 5.9548 17.0343C5.97269 18.5554 6.33954 19.9512 7.3193 21.3515C7.61904 21.866 7.99931 22.3447 8.47353 22.7876C9.83356 7.68862 20.7809 5.41595 25.0668 5.64858C25.5544 5.67543 25.8407 5.87227 25.8407 5.87227ZM23.3444 4.34672C23.3265 3.85908 23.322 3.41617 23.5054 3.00011C23.6217 2.72721 23.8723 2.48563 24.2346 2.63326C24.4225 2.70484 24.6283 2.72721 24.8699 2.78537C24.2257 3.18801 23.7246 3.68012 23.3444 4.34672Z" fill="#629F3F"/>
<path id="Vector_2" d="M21.6892 6.90124C12.4553 9.02181 10.3571 17.5578 10.196 20.0362C9.9634 22.5147 10.5718 22.5505 14.6161 24C10.2587 16.1306 16.9872 8.82943 21.6892 6.90124Z" fill="#629F3F"/>
<path id="Vector_3" d="M21.1789 8.08679C16.5799 10.61 13.569 15.5311 14.5354 20.9757C14.8933 22.9934 16.6559 25.105 23.7513 18.9491C16.7365 21.7407 14.7993 14.2114 21.1789 8.08231V8.08679Z" fill="#629F3F"/>
</g>
</svg>
