<svg width="25" height="24" viewBox="0 0 25 24" fill="none" xmlns="http://www.w3.org/2000/svg">
<g id="ion:newspaper-outline">
<path id="Vector" d="M17.6936 19.4934V3.375C17.6927 3.0769 17.5739 2.79125 17.3631 2.58046C17.1524 2.36967 16.8667 2.25087 16.5686 2.25H3.8186C3.5205 2.25087 3.23486 2.36967 3.02406 2.58046C2.81327 2.79125 2.69447 3.0769 2.6936 3.375V19.875C2.69509 20.3718 2.89311 20.8479 3.24442 21.1992C3.59573 21.5505 4.07178 21.7485 4.5686 21.75H19.9436" stroke="#505050" stroke-width="1.5" stroke-linejoin="round"/>
<path id="Vector_2" d="M19.9436 21.75C19.3469 21.75 18.7746 21.5129 18.3526 21.091C17.9307 20.669 17.6936 20.0967 17.6936 19.5V6H21.0686C21.367 6 21.6531 6.11853 21.8641 6.3295C22.0751 6.54048 22.1936 6.82663 22.1936 7.125V19.5C22.1936 20.0967 21.9566 20.669 21.5346 21.091C21.1126 21.5129 20.5403 21.75 19.9436 21.75Z" stroke="#505050" stroke-width="1.5" stroke-linejoin="round"/>
<path id="Vector_3" d="M11.6936 6H14.6936M11.6936 9H14.6936M5.6936 12H14.6936M5.6936 15H14.6936M5.6936 18H14.6936" stroke="#505050" stroke-width="1.5" stroke-linecap="round" stroke-linejoin="round"/>
<path id="Vector_4" d="M8.6936 9.75H5.6936C5.49469 9.75 5.30393 9.67098 5.16327 9.53033C5.02262 9.38968 4.9436 9.19891 4.9436 9V6C4.9436 5.80109 5.02262 5.61032 5.16327 5.46967C5.30393 5.32902 5.49469 5.25 5.6936 5.25H8.6936C8.89252 5.25 9.08328 5.32902 9.22393 5.46967C9.36459 5.61032 9.4436 5.80109 9.4436 6V9C9.4436 9.19891 9.36459 9.38968 9.22393 9.53033C9.08328 9.67098 8.89252 9.75 8.6936 9.75Z" fill="#505050"/>
</g>
</svg>
