<svg width="39" height="40" viewBox="0 0 39 40" fill="none" xmlns="http://www.w3.org/2000/svg">
<g id="Icon - Star">
<path id="Object" d="M18.0186 5.03446C18.7393 3.83064 20.4168 3.83064 21.1375 5.03446L25.3697 12.1036C25.6222 12.5253 26.0212 12.8283 26.4829 12.949L34.2225 14.972C35.5406 15.3165 36.0589 16.9841 35.1864 18.0726L30.0624 24.4645C29.7567 24.8458 29.6043 25.3362 29.6372 25.8325L30.1883 34.1518C30.2822 35.5686 28.925 36.5992 27.665 36.0682L20.266 32.9494C19.8246 32.7634 19.3314 32.7634 18.89 32.9494L11.491 36.0682C10.231 36.5992 8.87391 35.5686 8.96776 34.1518L9.51887 25.8325C9.55175 25.3362 9.39934 24.8458 9.09366 24.4645L3.96972 18.0726C3.09714 16.9841 3.61553 15.3165 4.93353 14.972L12.6731 12.949C13.1348 12.8283 13.5339 12.5253 13.7863 12.1036L18.0186 5.03446Z" fill="#FFE55A"/>
</g>
</svg>
